<mxfile host="app.diagrams.net" modified="2022-09-07T04:59:13.621Z" agent="5.0 (Windows NT 10.0; Win64; x64) AppleWebKit/537.36 (KHTML, like Gecko) Chrome/104.0.0.0 Safari/537.36" etag="vrzBDYHSoBV1cp73EBVw" version="20.2.8" type="github">
  <diagram id="R2lEEEUBdFMjLlhIrx00" name="Page-1">
    <mxGraphModel dx="1578" dy="895" grid="1" gridSize="10" guides="1" tooltips="1" connect="1" arrows="1" fold="1" page="1" pageScale="1" pageWidth="850" pageHeight="1100" math="0" shadow="0" extFonts="Permanent Marker^https://fonts.googleapis.com/css?family=Permanent+Marker">
      <root>
        <mxCell id="0" />
        <mxCell id="1" parent="0" />
        <mxCell id="De6JqjMIoli-sQPpnktw-12" style="edgeStyle=none;rounded=0;orthogonalLoop=1;jettySize=auto;html=1;exitX=0;exitY=0.5;exitDx=0;exitDy=0;entryX=1;entryY=0.5;entryDx=0;entryDy=0;strokeColor=default;" edge="1" parent="1" source="De6JqjMIoli-sQPpnktw-1" target="De6JqjMIoli-sQPpnktw-3">
          <mxGeometry relative="1" as="geometry" />
        </mxCell>
        <mxCell id="De6JqjMIoli-sQPpnktw-13" style="edgeStyle=none;rounded=0;orthogonalLoop=1;jettySize=auto;html=1;exitX=0.5;exitY=0;exitDx=0;exitDy=0;entryX=0.5;entryY=1;entryDx=0;entryDy=0;strokeColor=default;" edge="1" parent="1" source="De6JqjMIoli-sQPpnktw-1" target="De6JqjMIoli-sQPpnktw-2">
          <mxGeometry relative="1" as="geometry" />
        </mxCell>
        <mxCell id="De6JqjMIoli-sQPpnktw-14" style="edgeStyle=none;rounded=0;orthogonalLoop=1;jettySize=auto;html=1;entryX=1;entryY=1;entryDx=0;entryDy=0;strokeColor=default;" edge="1" parent="1" source="De6JqjMIoli-sQPpnktw-1" target="De6JqjMIoli-sQPpnktw-4">
          <mxGeometry relative="1" as="geometry" />
        </mxCell>
        <mxCell id="De6JqjMIoli-sQPpnktw-36" style="edgeStyle=none;rounded=0;orthogonalLoop=1;jettySize=auto;html=1;exitX=1;exitY=0.5;exitDx=0;exitDy=0;entryX=0;entryY=0.5;entryDx=0;entryDy=0;strokeColor=default;" edge="1" parent="1" source="De6JqjMIoli-sQPpnktw-1" target="De6JqjMIoli-sQPpnktw-35">
          <mxGeometry relative="1" as="geometry" />
        </mxCell>
        <mxCell id="De6JqjMIoli-sQPpnktw-1" value="karyawan" style="rounded=0;whiteSpace=wrap;html=1;fillColor=#d5e8d4;strokeColor=#82b366;" vertex="1" parent="1">
          <mxGeometry x="199" y="150" width="120" height="60" as="geometry" />
        </mxCell>
        <mxCell id="De6JqjMIoli-sQPpnktw-2" value="nik" style="ellipse;whiteSpace=wrap;html=1;" vertex="1" parent="1">
          <mxGeometry x="219" y="40" width="80" height="50" as="geometry" />
        </mxCell>
        <mxCell id="De6JqjMIoli-sQPpnktw-3" value="nama" style="ellipse;whiteSpace=wrap;html=1;" vertex="1" parent="1">
          <mxGeometry x="39" y="155" width="80" height="50" as="geometry" />
        </mxCell>
        <mxCell id="De6JqjMIoli-sQPpnktw-4" value="jabatan" style="ellipse;whiteSpace=wrap;html=1;" vertex="1" parent="1">
          <mxGeometry x="79" y="50" width="80" height="50" as="geometry" />
        </mxCell>
        <mxCell id="De6JqjMIoli-sQPpnktw-18" style="edgeStyle=none;rounded=0;orthogonalLoop=1;jettySize=auto;html=1;entryX=1;entryY=0.5;entryDx=0;entryDy=0;strokeColor=default;" edge="1" parent="1" source="De6JqjMIoli-sQPpnktw-15" target="De6JqjMIoli-sQPpnktw-16">
          <mxGeometry relative="1" as="geometry" />
        </mxCell>
        <mxCell id="De6JqjMIoli-sQPpnktw-19" style="edgeStyle=none;rounded=0;orthogonalLoop=1;jettySize=auto;html=1;exitX=0.5;exitY=1;exitDx=0;exitDy=0;entryX=0.5;entryY=0;entryDx=0;entryDy=0;strokeColor=default;" edge="1" parent="1" source="De6JqjMIoli-sQPpnktw-15" target="De6JqjMIoli-sQPpnktw-17">
          <mxGeometry relative="1" as="geometry" />
        </mxCell>
        <mxCell id="De6JqjMIoli-sQPpnktw-47" style="edgeStyle=none;rounded=0;orthogonalLoop=1;jettySize=auto;html=1;strokeColor=default;" edge="1" parent="1" source="De6JqjMIoli-sQPpnktw-15" target="De6JqjMIoli-sQPpnktw-46">
          <mxGeometry relative="1" as="geometry">
            <Array as="points">
              <mxPoint x="399" y="405" />
            </Array>
          </mxGeometry>
        </mxCell>
        <mxCell id="De6JqjMIoli-sQPpnktw-15" value="pelanggan" style="rounded=0;whiteSpace=wrap;html=1;fillColor=#d5e8d4;strokeColor=#82b366;" vertex="1" parent="1">
          <mxGeometry x="199" y="375" width="120" height="60" as="geometry" />
        </mxCell>
        <mxCell id="De6JqjMIoli-sQPpnktw-16" value="nama_pelanngan" style="ellipse;whiteSpace=wrap;html=1;" vertex="1" parent="1">
          <mxGeometry x="29" y="375" width="110" height="60" as="geometry" />
        </mxCell>
        <mxCell id="De6JqjMIoli-sQPpnktw-17" value="kode_pelanggan" style="ellipse;whiteSpace=wrap;html=1;" vertex="1" parent="1">
          <mxGeometry x="199" y="485" width="120" height="50" as="geometry" />
        </mxCell>
        <mxCell id="De6JqjMIoli-sQPpnktw-23" style="edgeStyle=none;rounded=0;orthogonalLoop=1;jettySize=auto;html=1;strokeColor=default;" edge="1" parent="1" source="De6JqjMIoli-sQPpnktw-20" target="De6JqjMIoli-sQPpnktw-21">
          <mxGeometry relative="1" as="geometry" />
        </mxCell>
        <mxCell id="De6JqjMIoli-sQPpnktw-24" style="edgeStyle=none;rounded=0;orthogonalLoop=1;jettySize=auto;html=1;entryX=0.5;entryY=1;entryDx=0;entryDy=0;strokeColor=default;" edge="1" parent="1" source="De6JqjMIoli-sQPpnktw-20" target="De6JqjMIoli-sQPpnktw-22">
          <mxGeometry relative="1" as="geometry" />
        </mxCell>
        <mxCell id="De6JqjMIoli-sQPpnktw-42" style="edgeStyle=none;rounded=0;orthogonalLoop=1;jettySize=auto;html=1;entryX=0.5;entryY=0;entryDx=0;entryDy=0;strokeColor=default;" edge="1" parent="1" source="De6JqjMIoli-sQPpnktw-20" target="De6JqjMIoli-sQPpnktw-41">
          <mxGeometry relative="1" as="geometry" />
        </mxCell>
        <mxCell id="De6JqjMIoli-sQPpnktw-20" value="user" style="rounded=0;whiteSpace=wrap;html=1;fillColor=#d5e8d4;strokeColor=#82b366;" vertex="1" parent="1">
          <mxGeometry x="539" y="150" width="120" height="60" as="geometry" />
        </mxCell>
        <mxCell id="De6JqjMIoli-sQPpnktw-21" value="username" style="ellipse;whiteSpace=wrap;html=1;" vertex="1" parent="1">
          <mxGeometry x="499" y="40" width="80" height="50" as="geometry" />
        </mxCell>
        <mxCell id="De6JqjMIoli-sQPpnktw-22" value="password" style="ellipse;whiteSpace=wrap;html=1;" vertex="1" parent="1">
          <mxGeometry x="619" y="40" width="80" height="50" as="geometry" />
        </mxCell>
        <mxCell id="De6JqjMIoli-sQPpnktw-29" style="edgeStyle=none;rounded=0;orthogonalLoop=1;jettySize=auto;html=1;entryX=0;entryY=0.5;entryDx=0;entryDy=0;strokeColor=default;" edge="1" parent="1" source="De6JqjMIoli-sQPpnktw-25" target="De6JqjMIoli-sQPpnktw-27">
          <mxGeometry relative="1" as="geometry" />
        </mxCell>
        <mxCell id="De6JqjMIoli-sQPpnktw-30" style="edgeStyle=none;rounded=0;orthogonalLoop=1;jettySize=auto;html=1;entryX=0.5;entryY=0;entryDx=0;entryDy=0;strokeColor=default;" edge="1" parent="1" source="De6JqjMIoli-sQPpnktw-25" target="De6JqjMIoli-sQPpnktw-26">
          <mxGeometry relative="1" as="geometry" />
        </mxCell>
        <mxCell id="De6JqjMIoli-sQPpnktw-31" style="edgeStyle=none;rounded=0;orthogonalLoop=1;jettySize=auto;html=1;exitX=1;exitY=0.75;exitDx=0;exitDy=0;entryX=0.5;entryY=0;entryDx=0;entryDy=0;strokeColor=default;" edge="1" parent="1" source="De6JqjMIoli-sQPpnktw-25" target="De6JqjMIoli-sQPpnktw-28">
          <mxGeometry relative="1" as="geometry" />
        </mxCell>
        <mxCell id="De6JqjMIoli-sQPpnktw-50" style="edgeStyle=none;rounded=0;orthogonalLoop=1;jettySize=auto;html=1;exitX=0;exitY=0.5;exitDx=0;exitDy=0;entryX=0.5;entryY=0;entryDx=0;entryDy=0;strokeColor=default;" edge="1" parent="1" source="De6JqjMIoli-sQPpnktw-25" target="De6JqjMIoli-sQPpnktw-49">
          <mxGeometry relative="1" as="geometry">
            <Array as="points">
              <mxPoint x="499" y="405" />
            </Array>
          </mxGeometry>
        </mxCell>
        <mxCell id="De6JqjMIoli-sQPpnktw-25" value="transaksi_pembelian" style="rounded=0;whiteSpace=wrap;html=1;fillColor=#d5e8d4;strokeColor=#82b366;" vertex="1" parent="1">
          <mxGeometry x="539" y="375" width="120" height="60" as="geometry" />
        </mxCell>
        <mxCell id="De6JqjMIoli-sQPpnktw-26" value="tanggal" style="ellipse;whiteSpace=wrap;html=1;" vertex="1" parent="1">
          <mxGeometry x="559" y="485" width="80" height="50" as="geometry" />
        </mxCell>
        <mxCell id="De6JqjMIoli-sQPpnktw-27" value="kode_tansaksi_jual" style="ellipse;whiteSpace=wrap;html=1;" vertex="1" parent="1">
          <mxGeometry x="714" y="387.5" width="110" height="35" as="geometry" />
        </mxCell>
        <mxCell id="De6JqjMIoli-sQPpnktw-28" value="transaksi_jual" style="ellipse;whiteSpace=wrap;html=1;" vertex="1" parent="1">
          <mxGeometry x="719" y="475" width="100" height="30" as="geometry" />
        </mxCell>
        <mxCell id="De6JqjMIoli-sQPpnktw-44" style="edgeStyle=none;rounded=0;orthogonalLoop=1;jettySize=auto;html=1;entryX=1;entryY=0.5;entryDx=0;entryDy=0;strokeColor=default;" edge="1" parent="1" source="De6JqjMIoli-sQPpnktw-32" target="De6JqjMIoli-sQPpnktw-34">
          <mxGeometry relative="1" as="geometry" />
        </mxCell>
        <mxCell id="De6JqjMIoli-sQPpnktw-45" style="edgeStyle=none;rounded=0;orthogonalLoop=1;jettySize=auto;html=1;entryX=1;entryY=0.5;entryDx=0;entryDy=0;strokeColor=default;" edge="1" parent="1" source="De6JqjMIoli-sQPpnktw-32" target="De6JqjMIoli-sQPpnktw-33">
          <mxGeometry relative="1" as="geometry" />
        </mxCell>
        <mxCell id="De6JqjMIoli-sQPpnktw-32" value="barang" style="rounded=0;whiteSpace=wrap;html=1;fillColor=#d5e8d4;strokeColor=#82b366;" vertex="1" parent="1">
          <mxGeometry x="199" y="677" width="120" height="60" as="geometry" />
        </mxCell>
        <mxCell id="De6JqjMIoli-sQPpnktw-33" value="kode_barang" style="ellipse;whiteSpace=wrap;html=1;" vertex="1" parent="1">
          <mxGeometry x="59" y="659.5" width="90" height="30" as="geometry" />
        </mxCell>
        <mxCell id="De6JqjMIoli-sQPpnktw-34" value="nama_barang" style="ellipse;whiteSpace=wrap;html=1;" vertex="1" parent="1">
          <mxGeometry x="59" y="724.5" width="90" height="30" as="geometry" />
        </mxCell>
        <mxCell id="De6JqjMIoli-sQPpnktw-37" style="edgeStyle=none;rounded=0;orthogonalLoop=1;jettySize=auto;html=1;exitX=1;exitY=0.5;exitDx=0;exitDy=0;entryX=0;entryY=0.5;entryDx=0;entryDy=0;strokeColor=default;" edge="1" parent="1" source="De6JqjMIoli-sQPpnktw-35" target="De6JqjMIoli-sQPpnktw-20">
          <mxGeometry relative="1" as="geometry" />
        </mxCell>
        <mxCell id="De6JqjMIoli-sQPpnktw-35" value="mendaftar" style="rhombus;whiteSpace=wrap;html=1;" vertex="1" parent="1">
          <mxGeometry x="389" y="140" width="80" height="80" as="geometry" />
        </mxCell>
        <mxCell id="De6JqjMIoli-sQPpnktw-43" style="edgeStyle=none;rounded=0;orthogonalLoop=1;jettySize=auto;html=1;strokeColor=default;" edge="1" parent="1" source="De6JqjMIoli-sQPpnktw-41">
          <mxGeometry relative="1" as="geometry">
            <mxPoint x="599" y="370" as="targetPoint" />
          </mxGeometry>
        </mxCell>
        <mxCell id="De6JqjMIoli-sQPpnktw-41" value="mendata" style="rhombus;whiteSpace=wrap;html=1;" vertex="1" parent="1">
          <mxGeometry x="559" y="260" width="80" height="80" as="geometry" />
        </mxCell>
        <mxCell id="De6JqjMIoli-sQPpnktw-48" style="edgeStyle=none;rounded=0;orthogonalLoop=1;jettySize=auto;html=1;entryX=1;entryY=0.5;entryDx=0;entryDy=0;strokeColor=default;" edge="1" parent="1" source="De6JqjMIoli-sQPpnktw-46" target="De6JqjMIoli-sQPpnktw-32">
          <mxGeometry relative="1" as="geometry">
            <Array as="points">
              <mxPoint x="399" y="707" />
            </Array>
          </mxGeometry>
        </mxCell>
        <mxCell id="De6JqjMIoli-sQPpnktw-46" value="membeli" style="rhombus;whiteSpace=wrap;html=1;" vertex="1" parent="1">
          <mxGeometry x="359" y="535" width="80" height="80" as="geometry" />
        </mxCell>
        <mxCell id="De6JqjMIoli-sQPpnktw-51" style="edgeStyle=none;rounded=0;orthogonalLoop=1;jettySize=auto;html=1;entryX=0.5;entryY=1;entryDx=0;entryDy=0;strokeColor=default;" edge="1" parent="1" source="De6JqjMIoli-sQPpnktw-49" target="De6JqjMIoli-sQPpnktw-32">
          <mxGeometry relative="1" as="geometry">
            <Array as="points">
              <mxPoint x="259" y="840" />
            </Array>
          </mxGeometry>
        </mxCell>
        <mxCell id="De6JqjMIoli-sQPpnktw-49" value="berisi" style="rhombus;whiteSpace=wrap;html=1;" vertex="1" parent="1">
          <mxGeometry x="459" y="800" width="80" height="80" as="geometry" />
        </mxCell>
      </root>
    </mxGraphModel>
  </diagram>
</mxfile>
